<svg width="176" height="24" viewBox="0 0 176 24" fill="none" xmlns="http://www.w3.org/2000/svg">
<g id="logo_col" clip-path="url(#clip0_15731_732)">
<path id="Vector" d="M51.7779 6.21792L51.7198 15.6901C51.7198 17.8402 51.6035 19.9903 49.9183 21.6174C48.5236 23.0121 46.3154 23.477 44.3396 23.4189C42.3638 23.4189 40.1556 22.8959 38.7609 21.5012C37.0757 19.8741 37.0176 17.724 37.0176 15.5738L37.0757 6.15981L41.434 6.21792L41.3759 15.0508C41.3759 17.2591 41.4922 19.6416 44.2815 19.6416C47.0708 19.6416 47.2452 17.2591 47.3033 15.109L47.3614 6.27603L51.7779 6.21792Z" fill="black"/>
<path id="Vector_2" d="M56.4261 6.27603H60.7263L64.0387 15.2833L67.6997 6.33414L72.0581 6.39225L74.4406 23.1864L70.0823 23.1283L68.92 13.4818L64.7941 23.1283L63.0508 23.0702L59.2735 13.4237H59.2154L57.7627 23.0702L53.4043 23.0121L56.4261 6.27603Z" fill="black"/>
<path id="Vector_3" d="M89.2001 17.6078C89.142 21.5012 85.9459 23.6513 82.2849 23.6513C78.6239 23.6513 75.4277 21.4431 75.4277 17.5496C75.4858 13.6562 78.682 11.4479 82.343 11.5061C86.004 11.4479 89.2001 13.7143 89.2001 17.6078ZM79.6699 17.4915C79.6699 18.9443 80.5996 20.0484 82.2268 20.0484C83.8539 20.0484 84.8418 18.9443 84.8418 17.4915C84.8418 16.0969 83.912 14.8765 82.2849 14.8765C80.6578 14.9346 79.728 16.0969 79.6699 17.4915Z" fill="black"/>
<path id="Vector_4" d="M99.544 22.0823C98.7885 23.1864 97.3938 23.7094 96.0573 23.7094C92.6868 23.7094 90.3043 20.862 90.3624 17.5496C90.3624 14.2954 92.7449 11.5061 96.1154 11.5061C97.452 11.5061 98.7885 12.0291 99.6602 13.017L99.7183 4.82325L103.786 4.88136L103.67 23.3608L99.6021 23.3027L99.544 22.0823ZM94.4883 17.6077C94.4883 19.0605 95.4181 20.1647 97.0452 20.1647C98.6723 20.1647 99.6602 19.0605 99.6602 17.6077C99.6602 16.2131 98.7304 14.9927 97.1033 14.9927C95.4762 15.0508 94.5464 16.2131 94.4883 17.6077Z" fill="black"/>
<path id="Vector_5" d="M117.907 18.4794L109.365 18.4213C109.365 20.0484 110.236 20.9782 111.863 20.9782C112.735 20.9782 113.374 20.6877 113.781 19.9322L117.675 19.9903C117.035 22.6634 114.42 23.8838 111.863 23.8838C108.086 23.8838 105.297 21.6755 105.297 17.7821C105.297 13.9467 107.97 11.6804 111.689 11.7385C115.641 11.7966 117.907 14.2373 117.907 18.1308V18.4794ZM114.13 16.0969C113.955 14.9927 112.968 14.2954 111.863 14.2954C110.701 14.2954 109.713 14.8765 109.423 16.0969H114.13Z" fill="black"/>
<path id="Vector_6" d="M119.847 5.03467L119.709 23.5141L123.777 23.5444L123.915 5.065L119.847 5.03467Z" fill="black"/>
<path id="Vector_7" d="M138.188 18.5956L129.646 18.5375C129.646 20.1646 130.518 21.0944 132.145 21.0944C133.016 21.0944 133.656 20.8039 134.062 20.0484L137.956 20.1065C137.317 22.7797 134.702 24 132.145 24C128.367 24 125.578 21.7918 125.578 17.8983C125.578 14.063 128.251 11.7966 131.97 11.8547C135.922 11.9128 138.188 14.3535 138.188 18.247V18.5956ZM134.469 16.2712C134.295 15.1671 133.307 14.4697 132.203 14.4697C131.041 14.4697 130.053 15.0508 129.762 16.2712H134.469Z" fill="black"/>
<path id="Vector_8" d="M144.116 14.1211C144.929 12.7264 146.266 12.0872 147.893 12.1453H148.648L148.59 16.0387C148.009 15.7482 147.486 15.632 146.905 15.632C144.639 15.632 144.116 17.0847 144.058 19.0605L143.999 23.6513L139.932 23.5932L139.99 12.1453L144.058 12.2034L144.116 14.1211Z" fill="black"/>
<path id="Vector_9" d="M169.919 23.5932L164.979 15.2833H164.921L159.749 23.5351L154.229 23.477L162.132 11.7385L154.635 0L160.563 0.0581114L165.212 7.84504H165.27L170.209 0.116223L175.614 0.174334L168.001 11.2736L175.788 23.6513L169.919 23.5932Z" fill="black"/>
<path id="Vector_10" d="M5.28814 12.7264V0.581114H0V12.7264C0 18.5956 4.76513 23.3608 10.5763 23.3608V18.0145C7.6707 18.0145 5.28814 15.6901 5.28814 12.7264Z" fill="#E75844"/>
<path id="Vector_11" d="M20.4551 23.3608V6.15981L10.5762 0V6.50847L15.0507 9.1816V23.3608H20.4551Z" fill="#67AD6F"/>
<path id="Vector_12" d="M31.4971 23.3608V6.15981L21.7344 0V6.50847L26.2089 9.1816V23.3608H31.4971Z" fill="#2682C4"/>
</g>
<defs>
<clipPath id="clip0_15731_732">
<rect width="175.787" height="24" fill="white"/>
</clipPath>
</defs>
</svg>
